<svg width="1920" height="5319" viewBox="0 0 1920 5319" fill="none" xmlns="http://www.w3.org/2000/svg">
<path fill-rule="evenodd" clip-rule="evenodd" d="M599.601 611.788C568.516 563.391 502.142 560.343 445.592 550.226C394.958 541.168 342.06 532.286 297.409 557.727C252.118 583.531 218.437 630.596 213.348 682.548C208.732 729.68 253.383 762.475 273.136 805.555C297.695 859.117 288.195 935.726 341.198 961.382C396.428 988.115 463.879 957.763 513.583 921.941C559.329 888.971 577.99 834.244 593.076 779.85C608.644 723.717 631.117 660.857 599.601 611.788Z" stroke="white" stroke-width="2"/>
<path fill-rule="evenodd" clip-rule="evenodd" d="M1544.1 28.0668C1608.21 30.3321 1648.92 92.3225 1690.81 140.852C1728.32 184.305 1766.95 230.032 1767.97 287.401C1769 345.591 1743.04 404.749 1696.11 439.24C1653.53 470.531 1596.66 446.35 1544.1 451.934C1478.75 458.878 1410.68 511.656 1355.9 475.386C1298.83 437.594 1289.54 355.536 1295.6 287.401C1301.18 224.69 1343.05 175.586 1386.63 130.104C1431.6 83.1683 1479.1 25.77 1544.1 28.0668Z" stroke="white" stroke-width="2"/>
<path fill-rule="evenodd" clip-rule="evenodd" d="M1504.95 1046.56C1537.8 1024.35 1580.68 1040.45 1619.25 1049.41C1653.8 1057.43 1689.72 1066.18 1711.09 1094.43C1732.77 1123.08 1741.32 1162.05 1730.42 1196.35C1720.53 1227.46 1683.33 1236.11 1659.11 1258.03C1628.99 1285.29 1614.18 1336.41 1573.63 1338.26C1531.37 1340.19 1496.89 1302.63 1475.14 1266.43C1455.12 1233.11 1458.17 1193.37 1463.4 1154.81C1468.8 1115.01 1471.65 1069.08 1504.95 1046.56Z" stroke="white" stroke-width="2"/>
<path fill-rule="evenodd" clip-rule="evenodd" d="M1397.95 2281.04C1446.15 2284.81 1488.86 2306.03 1532.41 2327.02C1581.94 2350.89 1640 2365.88 1669.83 2412.07C1700.97 2460.31 1707.32 2522.86 1695.04 2578.95C1683.15 2633.27 1633.77 2667.72 1603.63 2714.45C1567.23 2770.88 1563.46 2861.64 1499.51 2882.12C1435.94 2902.47 1380.83 2830.39 1318.86 2805.61C1264.24 2783.77 1198.78 2786.41 1156.9 2745.11C1113.88 2702.7 1098.4 2640.33 1090.51 2580.44C1082.68 2521.05 1082.28 2457.62 1112.19 2405.73C1141.09 2355.56 1196.21 2328.04 1249.28 2304.89C1296.23 2284.4 1346.88 2277.05 1397.95 2281.04Z" stroke="white" stroke-width="2"/>
<path fill-rule="evenodd" clip-rule="evenodd" d="M278.477 2229.07C244.613 2225.58 212.342 2234.89 179.515 2243.93C142.179 2254.22 100.058 2257.26 73.5471 2285.53C45.862 2315.04 33.5356 2357.61 34.9337 2398.06C36.2879 2437.24 66.1278 2467.38 81.0844 2503.6C99.1436 2547.34 90.2533 2610.77 131.958 2633.06C173.414 2655.22 220.722 2612.21 266.794 2602.87C307.395 2594.63 352.405 2604.75 386.652 2581.41C421.822 2557.44 440.453 2516.15 453.508 2475.61C466.452 2435.42 474.767 2391.48 460.629 2351.71C446.963 2313.26 412.272 2287.2 378.444 2264.42C348.515 2244.27 314.362 2232.77 278.477 2229.07Z" stroke="white" stroke-width="2"/>
<path fill-rule="evenodd" clip-rule="evenodd" d="M302.399 4129.84C263.835 4132.85 229.665 4149.84 194.819 4166.65C155.188 4185.76 108.729 4197.77 84.8685 4234.76C59.9514 4273.38 54.868 4323.46 64.6931 4368.38C74.2088 4411.88 113.718 4439.46 137.834 4476.88C166.954 4522.07 169.97 4594.75 221.138 4611.14C272.002 4627.43 316.096 4569.72 365.685 4549.88C409.386 4532.39 461.762 4534.5 495.274 4501.43C529.69 4467.47 542.081 4417.53 548.394 4369.57C554.653 4322.02 554.974 4271.23 531.047 4229.67C507.918 4189.5 463.82 4167.47 421.358 4148.93C383.788 4132.52 343.264 4126.64 302.399 4129.84Z" stroke="white" stroke-width="2"/>
<path fill-rule="evenodd" clip-rule="evenodd" d="M1239.83 3477.11C1273.28 3467.98 1307.25 3471.97 1341.74 3475.61C1380.97 3479.74 1423.8 3475.81 1455.14 3499.81C1487.86 3524.87 1507.33 3565.61 1512.65 3606.5C1517.8 3646.1 1492.82 3681.35 1483.82 3720.24C1472.94 3767.2 1492.42 3829.47 1454.22 3858.8C1416.24 3887.96 1361.56 3852.59 1313.71 3850.86C1271.54 3849.33 1228 3866.97 1189.7 3849.2C1150.38 3830.95 1124.79 3792.55 1104.93 3753.97C1085.25 3715.73 1069.59 3672.95 1077.18 3630.62C1084.52 3589.71 1115.05 3557.75 1145.25 3529.24C1171.98 3504.02 1204.38 3486.78 1239.83 3477.11Z" stroke="white" stroke-width="2"/>
<path fill-rule="evenodd" clip-rule="evenodd" d="M1448.54 1689.94C1487.28 1741.07 1464.93 1811.79 1453.77 1874.92C1443.78 1931.44 1432.72 1990.28 1388.89 2027.3C1344.43 2064.86 1282.17 2082.09 1225.78 2067.49C1174.63 2054.25 1157.46 1994.89 1119.93 1957.66C1073.27 1911.38 989.36 1891.95 982.88 1826.57C976.127 1758.45 1033.88 1699.42 1090.53 1661.09C1142.67 1625.8 1207.19 1627.24 1269.97 1632.3C1334.77 1637.53 1409.27 1638.09 1448.54 1689.94Z" stroke="white" stroke-width="2"/>
<path fill-rule="evenodd" clip-rule="evenodd" d="M570.14 1714.25C535.269 1722.4 504.279 1694.95 474.618 1674.93C448.059 1657 420.565 1638.01 411.633 1607.25C402.573 1576.05 407.917 1540.38 428.16 1514.94C446.525 1491.87 480.698 1496.58 508.199 1485.89C542.392 1472.6 571.35 1434.22 606.162 1445.76C642.436 1457.78 659.43 1500.63 666.12 1538.22C672.278 1572.82 656.899 1605.4 640.066 1636.27C622.695 1668.13 605.495 1705.99 570.14 1714.25Z" stroke="white" stroke-width="2"/>
<path fill-rule="evenodd" clip-rule="evenodd" d="M380.013 3329.44C424.048 3316.26 472.525 3334.28 511.286 3358.93C551.637 3384.58 587.197 3421.89 598.356 3468.27C609.158 3513.17 594.901 3561.75 569.349 3600.27C547.243 3633.59 506.592 3646.27 469.78 3662.08C440.95 3674.46 411.245 3678.41 380.013 3681.58C344.627 3685.17 305.921 3700.77 275.918 3681.73C245.673 3662.54 242.33 3621.11 231.177 3587.15C219.996 3553.11 197.901 3517.6 211.056 3484.26C224.115 3451.18 269.523 3447.52 295.787 3423.45C327.595 3394.3 338.627 3341.84 380.013 3329.44Z" stroke="white" stroke-width="2"/>
<path fill-rule="evenodd" clip-rule="evenodd" d="M1290.46 4094.25C1267.16 4084.6 1241.51 4097.8 1221 4115.84C1199.65 4134.63 1180.83 4161.95 1174.93 4195.91C1169.21 4228.79 1176.76 4264.36 1190.28 4292.56C1201.97 4316.96 1223.48 4326.25 1242.96 4337.82C1258.21 4346.89 1273.93 4349.78 1290.46 4352.1C1309.18 4354.73 1329.66 4366.15 1345.53 4352.21C1361.54 4338.16 1363.31 4307.82 1369.21 4282.96C1375.12 4258.03 1386.81 4232.03 1379.85 4207.62C1372.94 4183.39 1348.92 4180.71 1335.02 4163.09C1318.19 4141.75 1312.35 4103.33 1290.46 4094.25Z" stroke="white" stroke-width="2"/>
<path fill-rule="evenodd" clip-rule="evenodd" d="M1504.24 4904.65C1527.67 4895.32 1536.85 4867.98 1538.97 4840.74C1541.16 4812.39 1535.6 4779.69 1516.14 4751.23C1497.31 4723.68 1467.1 4703.45 1437.74 4692.66C1412.34 4683.34 1390.45 4691.68 1368.42 4696.97C1351.16 4701.11 1337.88 4710 1324.42 4719.86C1309.17 4731.03 1286.52 4737.13 1284.87 4758.19C1283.2 4779.42 1303.09 4802.4 1316.2 4824.33C1329.34 4846.32 1339.1 4873.11 1361.11 4885.75C1382.96 4898.3 1402.05 4883.46 1424.3 4886.4C1451.24 4889.96 1482.22 4913.42 1504.24 4904.65Z" stroke="white" stroke-width="2"/>
<g clip-path="url(#clip0_342_28)">
<path fill-rule="evenodd" clip-rule="evenodd" d="M125.241 5286.65C148.672 5277.32 157.852 5249.98 159.965 5222.74C162.165 5194.39 156.597 5161.69 137.143 5133.23C118.311 5105.68 88.097 5085.45 58.7395 5074.66C33.3416 5065.33 11.4485 5073.68 -10.584 5078.97C-27.839 5083.11 -41.1211 5091.99 -54.5811 5101.86C-69.8315 5113.03 -92.4756 5119.13 -94.1327 5140.19C-95.8031 5161.42 -75.9114 5184.4 -62.8013 5206.33C-49.6578 5228.32 -39.9003 5255.11 -17.8896 5267.75C3.95852 5280.3 23.0467 5265.46 45.2957 5268.4C72.2423 5271.96 103.219 5295.42 125.241 5286.65Z" stroke="white" stroke-opacity="0.11" stroke-width="2"/>
<path fill-rule="evenodd" clip-rule="evenodd" d="M96.54 5251.84C114.382 5244.74 121.371 5223.92 122.98 5203.18C124.655 5181.59 120.415 5156.69 105.603 5135.02C91.2638 5114.05 68.2578 5098.64 45.9042 5090.43C26.5655 5083.33 9.89555 5089.68 -6.88056 5093.71C-20.019 5096.86 -30.1323 5103.63 -40.3812 5111.14C-51.9933 5119.65 -69.2351 5124.29 -70.4968 5140.32C-71.7687 5156.49 -56.6226 5173.98 -46.6403 5190.68C-36.6324 5207.43 -29.2028 5227.83 -12.4432 5237.45C4.19249 5247 18.7268 5235.71 35.6677 5237.94C56.1857 5240.65 79.772 5258.52 96.54 5251.84Z" stroke="white" stroke-opacity="0.11" stroke-width="2"/>
<path fill-rule="evenodd" clip-rule="evenodd" d="M172.548 5309.54C205.373 5296.47 218.232 5258.17 221.192 5220.01C224.273 5180.29 216.473 5134.48 189.221 5094.62C162.841 5056.03 120.516 5027.69 79.3906 5012.58C43.812 4999.51 13.1432 5011.2 -17.7208 5018.61C-41.8924 5024.41 -60.4986 5036.86 -79.3541 5050.68C-100.717 5066.33 -132.438 5074.87 -134.76 5104.37C-137.1 5134.11 -109.234 5166.3 -90.8693 5197.03C-72.4573 5227.83 -58.7884 5265.36 -27.9548 5283.07C2.65094 5300.64 29.3906 5279.86 60.5579 5283.97C98.306 5288.96 141.699 5321.83 172.548 5309.54Z" stroke="white" stroke-opacity="0.11" stroke-width="2"/>
<path fill-rule="evenodd" clip-rule="evenodd" d="M230.695 5367.34C272.99 5350.5 289.56 5301.14 293.374 5251.98C297.344 5200.8 287.294 5141.77 252.178 5090.41C218.187 5040.68 163.649 5004.16 110.657 4984.7C64.813 4967.86 25.2951 4982.92 -14.4744 4992.46C-45.6203 4999.94 -69.5951 5015.98 -93.8911 5033.78C-121.419 5053.95 -162.292 5064.96 -165.283 5102.97C-168.298 5141.29 -132.393 5182.77 -108.729 5222.36C-85.0043 5262.05 -67.3915 5310.41 -27.6613 5333.23C11.7754 5355.87 46.2305 5329.09 86.3908 5334.4C135.031 5340.82 190.944 5383.17 230.695 5367.34Z" stroke="white" stroke-opacity="0.11" stroke-width="2"/>
</g>
<g clip-path="url(#clip1_342_28)">
<path fill-rule="evenodd" clip-rule="evenodd" d="M1822.34 5333.26C1838.1 5301.74 1822.24 5264.69 1799.11 5234.32C1775.04 5202.71 1738.82 5173.79 1692.07 5162.2C1646.82 5150.99 1596.5 5157.99 1555.86 5174.04C1520.7 5187.94 1505.63 5217 1487.57 5243C1473.43 5263.36 1467.84 5284.98 1462.98 5307.78C1457.47 5333.62 1439.52 5361.03 1457.38 5384.53C1475.38 5408.23 1517.49 5413.69 1551.56 5424.37C1585.72 5435.08 1620.8 5453.94 1655.51 5446.65C1689.96 5439.42 1696.07 5406.2 1722 5388.57C1753.41 5367.22 1807.53 5362.88 1822.34 5333.26Z" stroke="white" stroke-opacity="0.11" stroke-width="2"/>
<path fill-rule="evenodd" clip-rule="evenodd" d="M1867.86 5293.89C1886.5 5259.47 1867.24 5218.76 1839.34 5185.32C1810.28 5150.51 1766.71 5118.56 1710.66 5105.53C1656.39 5092.91 1596.2 5100.22 1547.65 5117.52C1505.66 5132.48 1487.83 5164.21 1466.39 5192.57C1449.61 5214.78 1443.08 5238.43 1437.42 5263.38C1431.01 5291.64 1409.73 5321.55 1431.28 5347.43C1453 5373.52 1503.46 5379.81 1544.32 5391.76C1585.29 5403.74 1627.44 5424.66 1668.94 5416.92C1710.13 5409.24 1717.2 5372.89 1748.12 5353.77C1785.57 5330.6 1850.34 5326.24 1867.86 5293.89Z" stroke="white" stroke-opacity="0.11" stroke-width="2"/>
<path fill-rule="evenodd" clip-rule="evenodd" d="M1760.04 5323.65C1772.04 5299.65 1759.97 5271.44 1742.36 5248.32C1724.03 5224.25 1696.45 5202.23 1660.85 5193.4C1626.4 5184.87 1588.08 5190.2 1557.13 5202.42C1530.36 5213 1518.89 5235.12 1505.14 5254.92C1494.37 5270.43 1490.12 5286.89 1486.41 5304.25C1482.22 5323.93 1468.55 5344.8 1482.15 5362.69C1495.86 5380.73 1527.92 5384.89 1553.86 5393.03C1579.87 5401.18 1606.59 5415.54 1633.01 5409.99C1659.24 5404.48 1663.89 5379.19 1683.64 5365.77C1707.56 5349.51 1748.76 5346.21 1760.04 5323.65Z" stroke="white" stroke-opacity="0.11" stroke-width="2"/>
<path fill-rule="evenodd" clip-rule="evenodd" d="M1892.96 5313.14C1915.03 5268.98 1892.82 5217.08 1860.42 5174.54C1826.7 5130.26 1775.97 5089.74 1710.48 5073.51C1647.08 5057.8 1576.59 5067.61 1519.66 5090.1C1470.4 5109.56 1449.29 5150.27 1424 5186.69C1404.19 5215.22 1396.36 5245.51 1389.55 5277.45C1381.83 5313.64 1356.69 5352.04 1381.71 5384.96C1406.92 5418.15 1465.91 5425.81 1513.64 5440.77C1561.48 5455.77 1610.64 5482.19 1659.26 5471.98C1707.51 5461.84 1716.07 5415.31 1752.4 5390.62C1796.4 5360.71 1872.21 5354.63 1892.96 5313.14Z" stroke="white" stroke-opacity="0.11" stroke-width="2"/>
<path fill-rule="evenodd" clip-rule="evenodd" d="M2016.34 5325.7C2044.79 5268.81 2016.16 5201.93 1974.42 5147.11C1930.97 5090.05 1865.6 5037.85 1781.21 5016.94C1699.52 4996.69 1608.69 5009.33 1535.33 5038.31C1471.87 5063.38 1444.66 5115.84 1412.07 5162.77C1386.54 5199.53 1376.46 5238.56 1367.68 5279.71C1357.73 5326.35 1325.34 5375.83 1357.58 5418.25C1390.07 5461.02 1466.08 5470.88 1527.58 5490.16C1589.23 5509.49 1652.56 5543.54 1715.21 5530.38C1777.39 5517.32 1788.42 5457.35 1835.23 5425.54C1891.92 5387 1989.61 5379.17 2016.34 5325.7Z" stroke="white" stroke-opacity="0.11" stroke-width="2"/>
</g>
<circle cx="370.853" cy="1646.85" r="113" transform="rotate(83.6225 370.853 1646.85)" fill="url(#paint0_radial_342_28)" fill-opacity="0.3"/>
<circle cx="1100.85" cy="3007.85" r="113" transform="rotate(9.72199 1100.85 3007.85)" fill="url(#paint1_radial_342_28)" fill-opacity="0.4"/>
<circle cx="1329.59" cy="3656.59" r="146.894" transform="rotate(9.72199 1329.59 3656.59)" fill="url(#paint2_radial_342_28)" fill-opacity="0.1"/>
<circle cx="439.008" cy="4146.01" r="107.413" transform="rotate(-78.2692 439.008 4146.01)" fill="url(#paint3_radial_342_28)" fill-opacity="0.4"/>
<circle cx="1337.01" cy="4153.01" r="25.4158" transform="rotate(176.278 1337.01 4153.01)" fill="url(#paint4_radial_342_28)" fill-opacity="0.4"/>
<circle cx="71.6782" cy="4483.68" r="66.3878" transform="rotate(176.278 71.6782 4483.68)" fill="url(#paint5_radial_342_28)" fill-opacity="0.4"/>
<circle cx="1536.55" cy="4763.18" r="88.0627" transform="rotate(-96.3654 1536.55 4763.18)" fill="url(#paint6_radial_342_28)" fill-opacity="0.4"/>
<circle cx="1119.89" cy="2687.89" r="25.4158" transform="rotate(5.88953 1119.89 2687.89)" fill="url(#paint7_radial_342_28)" fill-opacity="0.4"/>
<circle cx="1065.01" cy="1502.01" r="25.4158" transform="rotate(176.278 1065.01 1502.01)" fill="url(#paint8_radial_342_28)" fill-opacity="0.4"/>
<circle cx="193.012" cy="490.012" r="25.4158" transform="rotate(14.1047 193.012 490.012)" fill="url(#paint9_radial_342_28)" fill-opacity="0.4"/>
<circle cx="520.438" cy="3260.44" r="154.721" transform="rotate(176.278 520.438 3260.44)" fill="url(#paint10_radial_342_28)" fill-opacity="0.4"/>
<circle cx="268" cy="936" r="186" fill="url(#paint11_radial_342_28)" fill-opacity="0.4"/>
<circle cx="485.035" cy="496.804" r="117.957" transform="rotate(-174.464 485.035 496.804)" fill="url(#paint12_radial_342_28)" fill-opacity="0.4"/>
<circle cx="1514.24" cy="62.2419" r="58.7122" transform="rotate(66.5229 1514.24 62.2419)" fill="url(#paint13_radial_342_28)" fill-opacity="0.4"/>
<circle cx="1567.53" cy="1273.05" r="113" transform="rotate(83.6225 1567.53 1273.05)" fill="url(#paint14_radial_342_28)" fill-opacity="0.4"/>
<circle cx="212.5" cy="2568.5" r="83.5" transform="rotate(165.91 212.5 2568.5)" fill="url(#paint15_radial_342_28)" fill-opacity="0.4"/>
<circle cx="1055.5" cy="2039.5" r="196.5" fill="url(#paint16_radial_342_28)" fill-opacity="0.4"/>
<defs>
<radialGradient id="paint0_radial_342_28" cx="0" cy="0" r="1" gradientUnits="userSpaceOnUse" gradientTransform="translate(405.357 1704.36) rotate(-125.724) scale(195.503)">
<stop stop-color="#FFAC71"/>
<stop offset="1" stop-color="#FFAC71" stop-opacity="0"/>
</radialGradient>
<radialGradient id="paint1_radial_342_28" cx="0" cy="0" r="1" gradientUnits="userSpaceOnUse" gradientTransform="translate(1135.36 3065.36) rotate(-125.724) scale(195.503)">
<stop stop-color="#FFAC71"/>
<stop offset="1" stop-color="#FFAC71" stop-opacity="0"/>
</radialGradient>
<radialGradient id="paint2_radial_342_28" cx="0" cy="0" r="1" gradientUnits="userSpaceOnUse" gradientTransform="translate(1374.44 3731.34) rotate(-125.724) scale(254.143)">
<stop stop-color="#FFAC71"/>
<stop offset="1" stop-color="#FFAC71" stop-opacity="0"/>
</radialGradient>
<radialGradient id="paint3_radial_342_28" cx="0" cy="0" r="1" gradientUnits="userSpaceOnUse" gradientTransform="translate(471.806 4200.67) rotate(-125.724) scale(185.837)">
<stop stop-color="#FFAC71"/>
<stop offset="1" stop-color="#FFAC71" stop-opacity="0"/>
</radialGradient>
<radialGradient id="paint4_radial_342_28" cx="0" cy="0" r="1" gradientUnits="userSpaceOnUse" gradientTransform="translate(1344.77 4165.95) rotate(-125.724) scale(43.9723)">
<stop stop-color="#FFAC71"/>
<stop offset="1" stop-color="#FFAC71" stop-opacity="0"/>
</radialGradient>
<radialGradient id="paint5_radial_342_28" cx="0" cy="0" r="1" gradientUnits="userSpaceOnUse" gradientTransform="translate(91.9492 4517.46) rotate(-125.724) scale(114.859)">
<stop stop-color="#FFAC71"/>
<stop offset="1" stop-color="#FFAC71" stop-opacity="0"/>
</radialGradient>
<radialGradient id="paint6_radial_342_28" cx="0" cy="0" r="1" gradientUnits="userSpaceOnUse" gradientTransform="translate(1563.44 4807.99) rotate(-125.724) scale(152.359)">
<stop stop-color="#FFAC71"/>
<stop offset="1" stop-color="#FFAC71" stop-opacity="0"/>
</radialGradient>
<radialGradient id="paint7_radial_342_28" cx="0" cy="0" r="1" gradientUnits="userSpaceOnUse" gradientTransform="translate(1127.65 2700.82) rotate(-125.724) scale(43.9723)">
<stop stop-color="#FFAC71"/>
<stop offset="1" stop-color="#FFAC71" stop-opacity="0"/>
</radialGradient>
<radialGradient id="paint8_radial_342_28" cx="0" cy="0" r="1" gradientUnits="userSpaceOnUse" gradientTransform="translate(1072.77 1514.95) rotate(-125.724) scale(43.9723)">
<stop stop-color="#FFAC71"/>
<stop offset="1" stop-color="#FFAC71" stop-opacity="0"/>
</radialGradient>
<radialGradient id="paint9_radial_342_28" cx="0" cy="0" r="1" gradientUnits="userSpaceOnUse" gradientTransform="translate(200.773 502.946) rotate(-125.724) scale(43.9723)">
<stop stop-color="#FFAC71"/>
<stop offset="1" stop-color="#FFAC71" stop-opacity="0"/>
</radialGradient>
<radialGradient id="paint10_radial_342_28" cx="0" cy="0" r="1" gradientUnits="userSpaceOnUse" gradientTransform="translate(567.681 3339.18) rotate(-125.724) scale(267.685)">
<stop stop-color="#FFAC71"/>
<stop offset="1" stop-color="#FFAC71" stop-opacity="0"/>
</radialGradient>
<radialGradient id="paint11_radial_342_28" cx="0" cy="0" r="1" gradientUnits="userSpaceOnUse" gradientTransform="translate(324.794 1030.66) rotate(-125.724) scale(321.802)">
<stop stop-color="#FFAC71"/>
<stop offset="1" stop-color="#FFAC71" stop-opacity="0"/>
</radialGradient>
<radialGradient id="paint12_radial_342_28" cx="0" cy="0" r="1" gradientUnits="userSpaceOnUse" gradientTransform="translate(521.053 556.833) rotate(-125.724) scale(204.079)">
<stop stop-color="#FFAC71"/>
<stop offset="1" stop-color="#FFAC71" stop-opacity="0"/>
</radialGradient>
<radialGradient id="paint13_radial_342_28" cx="0" cy="0" r="1" gradientUnits="userSpaceOnUse" gradientTransform="translate(1532.17 92.1209) rotate(-125.724) scale(101.579)">
<stop stop-color="#FFAC71"/>
<stop offset="1" stop-color="#FFAC71" stop-opacity="0"/>
</radialGradient>
<radialGradient id="paint14_radial_342_28" cx="0" cy="0" r="1" gradientUnits="userSpaceOnUse" gradientTransform="translate(1602.04 1330.55) rotate(-125.724) scale(195.503)">
<stop stop-color="#FFAC71"/>
<stop offset="1" stop-color="#FFAC71" stop-opacity="0"/>
</radialGradient>
<radialGradient id="paint15_radial_342_28" cx="0" cy="0" r="1" gradientUnits="userSpaceOnUse" gradientTransform="translate(237.996 2610.99) rotate(-125.724) scale(144.465)">
<stop stop-color="#FFAC71"/>
<stop offset="1" stop-color="#FFAC71" stop-opacity="0"/>
</radialGradient>
<radialGradient id="paint16_radial_342_28" cx="0" cy="0" r="1" gradientUnits="userSpaceOnUse" gradientTransform="translate(1115.5 2139.5) rotate(-125.724) scale(339.968)">
<stop stop-color="#FFAC71"/>
<stop offset="1" stop-color="#FFAC71" stop-opacity="0"/>
</radialGradient>
<clipPath id="clip0_342_28">
<rect width="490" height="274" fill="white" transform="translate(-103 5045)"/>
</clipPath>
<clipPath id="clip1_342_28">
<rect width="836" height="274" fill="white" transform="translate(1250 5045)"/>
</clipPath>
</defs>
</svg>
